<svg xmlns="http://www.w3.org/2000/svg" width="32" height="32"><path fill="#E6EBEE" d="M30.648 32.012 32 18.152a7 7 0 0 0-.312-.535c-.438-.687-1.07-1.57-1.418-2.117l-.047-.074c-1.063-1.727-2.125-3.485-3.266-5.16a2.9 2.9 0 0 0-.738-.746c-.399-.274-.871-.368-1.414-.305q-.122.011-.25.039a10 10 0 0 0-.48.101c-.63.141-1.442.317-2.15.473-.655.14-1.245.274-1.507.336-.004 0-.008.008-.012.008-.043.012-.093.023-.093.031l-.172.031q-.353.078-.703.16c-.54.122-1.083.243-1.63.282-1.046.074-1.785.554-2.328 1.379-.093.148-.183.3-.265.465a12 12 0 0 0-.324.69c-.157.345-.297.696-.477 1.028a23 23 0 0 1-1.332 2.164 63 63 0 0 1-1.547 2.086c-.414.54-.812 1.063-1.16 1.535-1.082 1.489-3.207 4.157-4.121 5.536q-.153.228-.234.398c-.196.395.046 1.156.367 1.809.144.285.289.55.41.746.379.601 1.34 1.668 1.863 2.675.027.051.512.118.54.168l.14.043 21.305.618Zm0 0"/><path fill="#E6EBEE" d="M18.969 1.059h-6.426c.016.039.031.113.047.148.37 1.121.691 2.008.996 2.883.027.07.047.14.074.21.203.575.414 1.141.594 1.708.246.75.441 1.508.512 2.289.109 1.3.5 1.66 1.632 1.48.176-.027.364-.058.555-.097q3.487-.685 6.942-1.551.18-.047.355-.082.641-.135 1.21-.082c.685.062 1.298.34 1.852.89q.213.213.418.43.3.322.582.649.167.194.368.441c.183.23.383.492.601.773.332.438.703.918 1.106 1.407.39.472.789.98 1.195 1.508v-7.36l-.07-.016c-.14-.039-.285-.07-.426-.101-4.008-.887-8.05-2.742-11.402-5.05-.239-.165-.477-.321-.711-.477Zm2.21-.66c.43.449.938.902 1.505 1.343q.044.036.09.07c.554.426 1.16.84 1.792 1.227 1.262.766 2.633 1.418 3.957 1.848a2 2 0 0 0 .242.055c.583.105 2.637-.797 2.833-.899l.105-1.102.07-1.687L26.48.828 21.184.402ZM1.372 0 0 25.234l.043.012q.076.012.176.024c.187.02.426.023.687-.012a49 49 0 0 0 2.082-.328c.461-.082.84-.176 1.028-.301 1.004-.652 1.644-2.117 2.226-3.05 2.035-3.29 3.649-4.9 6.207-8.38 1.38-1.886 1.485-4.77.617-6.883-.8-1.953-1.703-3.902-2.98-6.027L10.05.273Zm-.61 31.535 6.169-.808c-.45-.766-1.41-2.004-1.93-2.684-.223-.29-.547-.598-.855-.746a2.2 2.2 0 0 0-.864-.227c-.972-.027-1.969.059-2.968.203-.012 0-.032.004-.043.004l.488 4.254Zm0 0"/></svg>